<svg width="36" height="40" viewBox="0 0 36 40" fill="none" xmlns="http://www.w3.org/2000/svg">
<path d="M35.27 0L32.0568 35.9958L17.6134 40L3.20978 36.0015L0 0H35.27Z" fill="#264DE4"/>
<path d="M17.635 16.2961H7.3584L7.75414 20.7115H17.635V16.2961Z" fill="#EBEBEB"/>
<path d="M17.635 7.35913H17.6198H6.56323L6.96461 11.7746H17.635V7.35913Z" fill="#EBEBEB"/>
<path d="M7.95142 22.9192L8.57002 29.852L17.6147 32.3629L17.635 32.3573V27.7634L17.6157 27.7685L12.6982 26.4407L12.3838 22.9192H9.9943H7.95142Z" fill="#EBEBEB"/>
<path d="M23.0569 20.7115L22.5443 26.4379L17.6198 27.7671V32.3608L26.6716 29.8521L26.738 29.1061L27.7756 17.4817L27.8834 16.2961L28.6805 7.35913H17.6198V11.7746H23.8415L23.4398 16.2961H17.6198V20.7115H23.0569Z" fill="white"/>
</svg>
