<svg width="27" height="40" viewBox="0 0 27 40" fill="none" xmlns="http://www.w3.org/2000/svg">
<path d="M6.66667 40C10.3467 40 13.3333 37.0134 13.3333 33.3334V26.6667H6.66667C2.98667 26.6667 0 29.6534 0 33.3334C0 37.0134 2.98667 40 6.66667 40Z" fill="#0ACF83"/>
<path d="M0 20C0 16.32 2.98667 13.3333 6.66667 13.3333H13.3333V26.6666H6.66667C2.98667 26.6666 0 23.68 0 20Z" fill="#A259FF"/>
<path d="M0 6.66667C0 2.98667 2.98667 0 6.66667 0H13.3333V13.3333H6.66667C2.98667 13.3333 0 10.3467 0 6.66667Z" fill="#F24E1E"/>
<path d="M13.3334 0H20C23.68 0 26.6667 2.98667 26.6667 6.66667C26.6667 10.3467 23.68 13.3333 20 13.3333H13.3334V0Z" fill="#FF7262"/>
<path d="M26.6667 20C26.6667 23.68 23.68 26.6666 20 26.6666C16.32 26.6666 13.3334 23.68 13.3334 20C13.3334 16.32 16.32 13.3333 20 13.3333C23.68 13.3333 26.6667 16.32 26.6667 20Z" fill="#1ABCFE"/>
</svg>
