<svg width="31" height="31" viewBox="0 0 31 31" fill="none" xmlns="http://www.w3.org/2000/svg">
<path d="M30.4134 14.1195L16.8804 0.586084C16.6953 0.400315 16.4753 0.252918 16.2331 0.152344C15.9909 0.051771 15.7313 0 15.469 0C15.2068 0 14.9471 0.051771 14.7049 0.152344C14.4627 0.252918 14.2427 0.400315 14.0576 0.586084L11.2469 3.39683L14.8115 6.96147C15.2318 6.81842 15.6838 6.79633 16.1161 6.8977C16.5484 6.99908 16.9435 7.21985 17.2564 7.53486C17.5694 7.84986 17.7875 8.24644 17.886 8.6794C17.9845 9.11235 17.9594 9.56427 17.8136 9.98367L21.2453 13.4155C21.7582 13.2392 22.3161 13.2441 22.8259 13.4293C23.3357 13.6144 23.7666 13.9687 24.0469 14.433C24.3272 14.8974 24.44 15.4438 24.3664 15.9812C24.2927 16.5185 24.0372 17.0145 23.6423 17.3863C23.2475 17.7581 22.7371 17.9834 22.1963 18.0246C21.6555 18.0658 21.1169 17.9205 20.6702 17.6128C20.2236 17.3051 19.8958 16.8536 19.7416 16.3336C19.5874 15.8136 19.6161 15.2564 19.8228 14.755L16.6181 11.5501V19.9824C17.1035 20.2229 17.4919 20.6225 17.7186 21.1146C17.9452 21.6067 17.9964 22.1617 17.8637 22.6869C17.7309 23.2122 17.4222 23.6762 16.9889 24.0015C16.5557 24.3268 16.024 24.4939 15.4826 24.4748C14.9411 24.4558 14.4226 24.2518 14.0132 23.8969C13.6039 23.542 13.3285 23.0575 13.2329 22.5242C13.1374 21.9909 13.2274 21.4409 13.488 20.9659C13.7487 20.4909 14.1642 20.1196 14.6653 19.9137V11.404C14.3754 11.285 14.1119 11.1099 13.8899 10.8886C13.668 10.6674 13.492 10.4044 13.3721 10.1148C13.2522 9.82527 13.1908 9.51486 13.1915 9.20146C13.1921 8.88807 13.2547 8.57789 13.3757 8.2888L9.86652 4.7773L0.586618 14.0609C0.40069 14.246 0.253158 14.466 0.152489 14.7084C0.0518214 14.9507 0 15.2105 0 15.4729C0 15.7353 0.0518214 15.9951 0.152489 16.2374C0.253158 16.4797 0.40069 16.6997 0.586618 16.8849L14.1196 30.4139C14.3047 30.5997 14.5247 30.7471 14.7669 30.8477C15.0091 30.9482 15.2687 31 15.531 31C15.7932 31 16.0529 30.9482 16.2951 30.8477C16.5373 30.7471 16.7573 30.5997 16.9424 30.4139L30.4134 16.9391C30.5993 16.754 30.7468 16.534 30.8475 16.2916C30.9482 16.0493 31 15.7895 31 15.5271C31 15.2647 30.9482 15.0049 30.8475 14.7626C30.7468 14.5203 30.5993 14.3002 30.4134 14.1151" fill="white"/>
</svg>
