<svg width="52" height="50" viewBox="0 0 52 50" fill="none" xmlns="http://www.w3.org/2000/svg">
<path fill-rule="evenodd" clip-rule="evenodd" d="M25.6572 0C11.4889 0 0 11.476 0 25.6329C0 36.9583 7.35155 46.5665 17.546 49.956C18.8282 50.1932 19.2991 49.3999 19.2991 48.7228C19.2991 48.1117 19.2751 46.0923 19.2643 43.9505C12.1262 45.5011 10.62 40.9261 10.62 40.9261C9.45294 37.9633 7.7713 37.1756 7.7713 37.1756C5.44353 35.5846 7.94677 35.6172 7.94677 35.6172C10.5233 35.7981 11.8799 38.2588 11.8799 38.2588C14.1682 42.1776 17.882 41.0445 19.3462 40.3898C19.5764 38.7328 20.2414 37.6022 20.9751 36.9621C15.2764 36.3138 9.28552 34.1159 9.28552 24.2942C9.28552 21.4958 10.2878 19.209 11.9292 17.414C11.6628 16.7683 10.7846 14.1612 12.1777 10.6305C12.1777 10.6305 14.3322 9.94154 19.2353 13.258C21.2817 12.6899 23.4767 12.4052 25.6572 12.3956C27.8376 12.4052 30.0342 12.6899 32.0847 13.258C36.9819 9.94154 39.1334 10.6305 39.1334 10.6305C40.5299 14.1612 39.6514 16.7683 39.3849 17.414C41.0299 19.209 42.0254 21.4956 42.0254 24.2942C42.0254 34.1392 36.0233 36.3072 30.3101 36.9416C31.2303 37.7371 32.0503 39.2971 32.0503 41.6884C32.0503 45.1181 32.0205 47.8785 32.0205 48.7228C32.0205 49.4049 32.4823 50.2043 33.783 49.9526C43.9719 46.5593 51.3141 36.9545 51.3141 25.6329C51.3141 11.476 39.8268 0 25.6572 0Z" fill="white"/>
<path d="M9.62195 36.5076C9.56601 36.6352 9.36663 36.6735 9.18543 36.586C9.00064 36.5021 8.89676 36.3278 8.95669 36.1996C9.01163 36.0681 9.211 36.0314 9.3954 36.1197C9.58059 36.2034 9.68607 36.3793 9.62195 36.5076ZM10.8749 37.6362C10.7535 37.75 10.5159 37.6971 10.3547 37.5174C10.1881 37.3381 10.1569 37.0985 10.2802 36.9829C10.4055 36.8694 10.6358 36.9224 10.8028 37.1019C10.9694 37.2832 11.002 37.5212 10.8749 37.6362ZM11.7346 39.0803C11.5784 39.1898 11.323 39.0872 11.1654 38.8584C11.0094 38.6299 11.0094 38.3556 11.1688 38.2457C11.327 38.1358 11.5784 38.2346 11.7382 38.4615C11.894 38.6941 11.8942 38.9682 11.7346 39.0803ZM13.1882 40.7529C13.0485 40.9082 12.7512 40.8667 12.5335 40.6545C12.3109 40.4471 12.2488 40.1529 12.3889 39.9974C12.5301 39.8417 12.8292 39.8854 13.0485 40.0958C13.2697 40.3027 13.337 40.5992 13.1882 40.7529ZM15.0669 41.3176C15.0055 41.5189 14.719 41.6105 14.4306 41.525C14.1425 41.4368 13.9539 41.2009 14.012 40.9974C14.072 40.7947 14.3597 40.6993 14.6503 40.7908C14.938 40.8786 15.1268 41.1127 15.0669 41.3176ZM17.2053 41.557C17.2125 41.7692 16.9677 41.9451 16.6649 41.9489C16.3602 41.9556 16.1139 41.7839 16.1107 41.5754C16.1107 41.3612 16.3498 41.1869 16.6543 41.1819C16.9571 41.1758 17.2053 41.3463 17.2053 41.557ZM19.3057 41.4758C19.3421 41.6827 19.1315 41.8953 18.8309 41.9517C18.5352 42.0062 18.2615 41.8785 18.2237 41.6734C18.187 41.4612 18.4015 41.2489 18.6966 41.1938C18.9979 41.141 19.2674 41.2654 19.3057 41.4758Z" fill="white"/>
</svg>
