<svg width="30" height="24" viewBox="0 0 30 24" fill="none" xmlns="http://www.w3.org/2000/svg">
<path fill-rule="evenodd" clip-rule="evenodd" d="M18.2631 0.0354871C18.7959 0.180803 19.1101 0.730544 18.9648 1.26337L12.9648 23.2634C12.8194 23.7962 12.2697 24.1103 11.7369 23.965C11.2041 23.8197 10.8899 23.27 11.0352 22.7371L17.0352 0.737134C17.1806 0.204309 17.7303 -0.109829 18.2631 0.0354871ZM21.2929 4.29314C21.6834 3.90262 22.3166 3.90262 22.7071 4.29314L29.7071 11.2931C30.0976 11.6837 30.0976 12.3168 29.7071 12.7074L22.7071 19.7074C22.3166 20.0979 21.6834 20.0979 21.2929 19.7074C20.9024 19.3168 20.9024 18.6837 21.2929 18.2931L27.5858 12.0003L21.2929 5.70736C20.9024 5.31683 20.9024 4.68367 21.2929 4.29314ZM8.70711 4.29314C9.09763 4.68367 9.09763 5.31683 8.70711 5.70736L2.41421 12.0003L8.70711 18.2931C9.09763 18.6837 9.09763 19.3168 8.70711 19.7074C8.31658 20.0979 7.68342 20.0979 7.29289 19.7074L0.292893 12.7074C-0.0976311 12.3168 -0.0976311 11.6837 0.292893 11.2931L7.29289 4.29314C7.68342 3.90262 8.31658 3.90262 8.70711 4.29314Z" fill="white"/>
</svg>
