<svg width="57" height="57" viewBox="0 0 57 57" fill="none" xmlns="http://www.w3.org/2000/svg">
<g clip-path="url(#clip0_17_59)">
<path d="M0 0H57V57H0V0Z" fill="#FFBD00"/>
<path d="M14.9874 47.6333L19.3494 44.9935C20.191 46.4855 20.9565 47.7479 22.7927 47.7479C24.5528 47.7479 25.6625 47.0594 25.6625 44.3813V26.1685H31.0191V44.457C31.0191 50.005 27.767 52.5303 23.0223 52.5303C18.7373 52.5303 16.2499 50.311 14.9873 47.6329" fill="white"/>
<path d="M33.9286 47.0594L38.2901 44.5341C39.4382 46.4092 40.9305 47.7865 43.5704 47.7865C45.7898 47.7865 47.2052 46.6768 47.2052 45.1463C47.2052 43.3097 45.7513 42.6592 43.3025 41.5882L41.9637 41.0139C38.099 39.369 35.5354 37.3028 35.5354 32.9409C35.5354 28.9234 38.5963 25.8623 43.3792 25.8623C46.7845 25.8623 49.2333 27.0485 50.9931 30.1478L46.8225 32.826C45.9042 31.1809 44.9097 30.5305 43.3793 30.5305C41.8105 30.5305 40.8156 31.5253 40.8156 32.826C40.8156 34.433 41.8105 35.0836 44.106 36.0785L45.445 36.6524C49.9982 38.6039 52.5619 40.5933 52.5619 45.0698C52.5619 49.8911 48.774 52.5309 43.6853 52.5309C38.7113 52.5309 35.4971 50.1588 33.9286 47.0594Z" fill="white"/>
</g>
<defs>
<clipPath id="clip0_17_59">
<rect width="57" height="57" rx="10" fill="white"/>
</clipPath>
</defs>
</svg>
