<svg width="50" height="42" viewBox="0 0 50 42" fill="none" xmlns="http://www.w3.org/2000/svg">
<path fill-rule="evenodd" clip-rule="evenodd" d="M38.3002 41.3756C38.6306 41.6117 39.0136 41.7628 39.4157 41.8157C39.8177 41.8685 40.2266 41.8216 40.6064 41.6789C40.9839 41.5357 41.3198 41.2999 41.5832 40.993C41.8467 40.6861 42.0294 40.3178 42.1147 39.9217C43.9251 31.3785 48.3167 9.75492 49.9646 1.98364C50.0256 1.69486 50.0075 1.39487 49.9121 1.11564C49.8167 0.836404 49.6477 0.588384 49.423 0.398007C49.1971 0.205389 48.9242 0.0767132 48.6324 0.0252365C48.3405 -0.0262402 48.0403 0.0013436 47.7626 0.105146C39.0273 3.35172 12.1255 13.4868 1.12979 17.5722C0.790958 17.697 0.49969 17.9254 0.297094 18.2253C0.0944968 18.5252 -0.00919857 18.8814 0.000640726 19.2436C0.0256404 19.9841 0.521468 20.6264 1.23604 20.8418C6.16723 22.3229 12.6401 24.3833 12.6401 24.3833C12.6401 24.3833 15.665 33.5562 17.2421 38.221C17.44 38.8068 17.8963 39.267 18.4983 39.4259C18.7935 39.503 19.1032 39.5037 19.3987 39.428C19.6941 39.3523 19.9657 39.2026 20.1879 38.9929L26.6378 32.8784C26.6378 32.8784 34.0794 38.357 38.3002 41.3756ZM15.363 23.2244L18.8608 34.8092L19.6379 27.473L40.8564 8.25715C40.9653 8.15897 41.033 8.02288 41.0458 7.87646C41.0586 7.73003 41.0154 7.58421 40.9251 7.46851C40.8344 7.35256 40.704 7.27464 40.5592 7.24989C40.4144 7.22515 40.2657 7.25535 40.1418 7.33463L15.363 23.2244Z" fill="white"/>
</svg>
